*********** **** **** *** ******** *********** **** *** **********

*+* +*+*+* *+*+*+ *+* *+* *+* *+* *+* *+*+* *+* *+*

+*+ +*+ +*+*+ +*+ +*+ +*+ +*+ +*+ *+*+*+ +*+ +*+

+$+ +$+ +*+ +$+ +$++*++$++* *$* +$+ +$+ +*+ +$+ +$++*++$

+$+ +$+ +$+ +$+ +$+ +$+ +$+$ +$+ +$+ +$+$+$ +$+

$+$ $+$ $+$ $+$ $+$ $+$ $+$ $+$ $+$ $+$+$ $+$

$$$$$$$$$$$ $$$ $$$ $$$ $$$ $$$$$$$$ $$$$$$$$$$$ $$$ $$$$ $$$$$$$$$$









Another Fine Release Brought to you from - IMAGiNE





********************************************************************************************************************

Secretariat PPVRiP READNFO XViD - IMAGiNE

********************************************************************************************************************



Ripper ...........:IMAGiNE IMDB Rating.......:7.2/10

Video Codec.......:XVID Release Date......:08/12/10

Audio Codec.......:AC-3 Theatre Date......:02/10/10

Audio Bitrate.....:128 Runtime...........:1h 59mn

Subtitles.........:NIL Language..........:ENGLISH

Resolution........:704 x 400 IMDb URL.......... http://www.imdb.com/title/tt1028576/

DETAILS:



Video

ID : 0

Format : MPEG-4 Visual

Format profile : Advanced Simple@L5

Format settings, BVOP : Yes

Format settings, QPel : No

Format settings, GMC : No warppoints

Format settings, Matrix : Default (H.263)

Muxing mode : Packed bitstream

Codec ID : XVID

Codec ID/Hint : XviD

Duration : 1h 59mn

Bit rate : 1 385 Kbps

Width : 704 pixels

Height : 400 pixels

Display aspect ratio : 16:9

Frame rate : 29.970 fps

Color space : YUV

Chroma subsampling : 4:2:0

Bit depth : 8 bits

Scan type : Progressive

Bits/(Pixel*Frame) : 0.164

Stream size : 1.16 GiB (91%)

Writing library : XviD 1.1.2 (UTC 2006-11-01)



Audio

ID : 1

Format : AC-3

Format/Info : Audio Coding 3

Mode extension : CM (complete main)

Codec ID : 2000

Duration : 1h 59mn

Bit rate mode : Constant

Bit rate : 128 Kbps

Channel(s) : 2 channels

Channel positions : Front: L R

Sampling rate : 48.0 KHz

Bit depth : 16 bits

Stream size : 109 MiB (8%)

Alignment : Aligned on interleaves

Interleave, duration : 33 ms (1.00 video frame)

Interleave, preload duration : 512 ms





SOURCES:



VIDEO:Vobs Thanks Lkrg

AUDIO:Vobs Thanks Lkrg



NOTES:



IMAGiNE bringing you another release.......... Secretariat



Here we are with our encode of this one... We we're sent the original vob's from our friend's

at LKRG so thanks bro... First off we want to clarify what type of source this is, this is a PPVRiP

BUT it was recorded with an HD cam sitting in front of the tv... :wink: As you can tell by the vertical

wavy lines and the blurred 2 digit channel at the bottom right, also the source files had to be

cropped so you could tell it was cammed.



We did our normal filtering to the video of changing the brightness,contrast,colour, resize etc...

The audio is AC3 so it was just a matter of muxing it to the video.

We do realize the retail release of this is right around the corner, but thought to give this to

everyone just incase they want it... :P



Enjoy folks......